<svg version="1.1" id="Layer_1" xmlns="http://www.w3.org/2000/svg" xmlns:xlink="http://www.w3.org/1999/xlink" x="0px" y="0px"
	 width="100%" viewBox="0 0 133 130" enable-background="new 0 0 133 130" xml:space="preserve">
<path fill="#000000" opacity="1.000000" stroke="none" 
	d="
M0.999998,93.000000 
	C1.000000,62.433037 1.000000,31.866074 1.000000,1.000000 
	C15.019477,1.000000 29.041080,1.000000 43.823868,1.310483 
	C43.246685,2.413411 41.955631,3.302802 40.562351,3.982720 
	C30.798771,8.747335 24.343800,16.167236 21.624477,27.105639 
	C21.227291,29.188406 21.197983,31.086700 21.094666,33.379501 
	C21.058018,34.840591 21.095379,35.907177 21.068024,37.400551 
	C21.473848,40.218388 21.944386,42.609440 22.357157,45.200691 
	C22.299391,45.400887 22.609999,45.677055 22.609999,45.677055 
	C22.609999,45.677055 22.980417,45.487938 23.333416,45.556786 
	C24.165344,45.641621 24.644274,45.657604 25.177547,46.077705 
	C24.923145,48.313648 24.614399,50.145477 24.269972,52.188995 
	C26.183237,52.539997 27.568794,52.794186 28.938301,53.273624 
	C28.922251,53.498875 29.079792,53.922153 28.992889,54.315956 
	C28.982494,55.777874 29.059000,56.845989 29.104795,58.254047 
	C29.707928,60.769573 30.341774,62.945156 31.100838,65.433395 
	C32.258080,66.863129 33.290104,67.980194 34.254745,69.344482 
	C34.210224,69.760979 34.233089,69.930260 34.289047,70.403671 
	C35.268646,71.786247 36.215160,72.864708 37.190205,74.263252 
	C38.476429,75.661438 39.734119,76.739540 41.218620,77.881630 
	C41.445427,77.945618 41.904671,78.051613 41.947571,78.302940 
	C42.030220,78.719421 42.069969,78.884583 42.080616,79.300461 
	C42.079086,79.717178 42.106659,79.883179 42.175194,80.352142 
	C43.125080,81.455200 44.034004,82.255287 45.077595,83.316238 
	C45.529278,84.069977 45.846291,84.562866 46.212845,85.333313 
	C46.812901,86.102478 47.363419,86.594078 48.034580,87.390320 
	C49.736897,89.446404 51.318565,91.197845 52.467705,92.966370 
	C50.343082,93.152008 48.650986,93.320572 46.958885,93.489128 
	C47.017620,93.819267 47.076351,94.149414 47.135082,94.479553 
	C53.072262,94.479553 59.009438,94.479553 64.946617,94.479553 
	C64.961136,93.980408 64.975647,93.481255 64.990166,92.982109 
	C62.678791,92.982109 60.367416,92.982109 58.079311,92.653275 
	C59.426739,90.884346 60.750900,89.444244 62.348640,87.910156 
	C63.076038,87.210388 63.529854,86.604607 64.238861,85.923546 
	C64.676208,85.229218 64.858368,84.610161 65.123886,83.679291 
	C65.458420,82.578255 65.709587,81.789047 66.193909,80.917442 
	C66.720741,80.653503 66.920486,80.398399 67.301422,79.972961 
	C68.053299,79.547638 68.530014,79.219109 69.357910,78.915268 
	C71.825035,76.324532 73.940971,73.709091 76.313339,70.932251 
	C76.760315,69.582718 76.950859,68.394577 77.425827,67.013580 
	C79.498505,64.602692 81.286751,62.384663 83.293213,60.043205 
	C83.827332,59.711502 83.953262,59.420940 83.920189,58.791389 
	C83.969223,58.363262 83.987289,58.191837 84.317345,57.861351 
	C85.426270,55.714188 86.223213,53.726082 87.369469,51.635559 
	C88.761337,47.685184 89.803886,43.837227 90.915504,39.556572 
	C90.934845,37.079510 90.885124,35.035137 90.908928,32.585239 
	C90.268692,29.118145 89.554939,26.056578 88.818970,22.640911 
	C84.385178,14.064318 78.572319,7.264635 69.856483,3.306882 
	C69.053963,2.942466 68.610298,1.787747 68.000000,1.000000 
	C89.937325,1.000000 111.874641,1.000000 134.000000,1.000000 
	C134.000000,30.020624 134.000000,59.041653 133.665710,88.602455 
	C132.894592,89.118790 132.313766,89.268456 132.044022,89.044113 
	C130.157501,87.475128 128.335327,85.828812 126.492538,84.207253 
	C126.102623,84.509941 125.712708,84.812630 125.322792,85.115311 
	C125.104408,83.744835 124.886032,82.374359 124.548798,80.258011 
	C118.836792,83.940674 120.433235,89.088554 119.954941,94.644989 
	C125.008621,93.693268 129.504318,92.846634 134.000000,92.000000 
	C134.000000,97.354927 134.000000,102.709862 133.653870,108.537552 
	C131.748230,110.249008 130.188721,111.487694 128.463257,112.515533 
	C128.169968,112.179008 128.042648,112.053337 127.951073,111.503937 
	C128.208633,109.636345 128.721466,108.164436 128.585648,106.755043 
	C128.369537,104.512787 127.720985,102.312218 127.255341,100.094025 
	C125.495171,101.447968 123.361626,102.517044 122.061134,104.221672 
	C120.041084,106.869453 118.588097,109.949852 116.894737,112.846870 
	C116.519119,112.694183 116.143501,112.541496 115.767876,112.388809 
	C116.530983,109.525848 117.382553,106.682114 118.010956,103.789886 
	C118.242325,102.725006 117.946907,101.545662 117.891769,100.418533 
	C116.384712,100.662361 114.270218,100.382248 113.506737,101.267433 
	C112.220665,102.758461 111.848495,105.014801 110.987297,106.901489 
	C110.064949,108.922157 109.021698,110.887642 108.031212,112.877213 
	C107.602898,112.690971 107.174591,112.504730 106.746277,112.318489 
	C107.449234,109.363014 108.449158,106.440247 108.779121,103.443703 
	C109.181229,99.791985 104.914078,99.342178 99.856873,102.097656 
	C98.727928,101.277512 97.504852,99.917419 97.045677,100.139168 
	C95.298561,100.982880 93.168251,102.003288 92.336769,103.570694 
	C90.611115,106.823662 89.623734,110.468269 88.332848,113.951874 
	C87.865097,113.799957 87.397346,113.648048 86.929596,113.496132 
	C87.077721,112.064720 87.130486,110.615387 87.395332,109.205910 
	C87.842934,106.823799 89.248177,104.287331 88.779160,102.136688 
	C87.794212,97.620270 84.479782,101.366806 82.253845,101.042084 
	C74.979637,99.980927 74.314728,100.900482 71.811119,108.124481 
	C71.003075,110.456062 67.679420,113.878296 66.074547,113.594109 
	C61.697151,112.818939 65.481277,109.508392 65.343948,107.277191 
	C65.329597,107.044075 65.747856,106.784340 65.918961,106.589767 
	C67.542519,106.717064 69.068520,106.836700 70.582550,106.955406 
	C72.004433,102.588074 68.999382,100.758575 66.303993,100.398643 
	C64.346596,100.137260 61.247494,101.781395 60.129883,103.521561 
	C58.662609,105.806175 58.229191,109.000931 58.096142,111.839188 
	C57.891212,116.210968 61.393864,119.212898 65.507141,117.835144 
	C69.462250,116.510368 72.861137,114.239616 76.923332,117.773605 
	C77.724625,118.470711 80.315399,116.872101 82.113731,116.719833 
	C84.597549,116.509529 87.112511,116.667068 90.955429,116.667068 
	C93.372658,119.082893 93.858589,118.962143 96.219093,114.559525 
	C97.749519,111.705109 99.593163,109.018623 100.874374,106.941284 
	C101.376343,110.415749 101.906212,114.083305 102.436081,117.750854 
	C104.816483,117.265839 107.196892,116.780823 109.738472,116.262962 
	C110.872505,116.866722 112.629150,117.801949 114.512108,118.804420 
	C108.646347,121.174774 108.391571,125.754799 110.000000,131.000000 
	C73.783920,131.000000 37.567837,131.000000 1.000000,131.000000 
	C1.000000,122.315605 1.000000,113.626465 1.325477,104.177902 
	C5.357586,106.206207 9.171281,107.577919 13.513807,104.503586 
	C13.822372,104.827080 13.953505,104.948982 14.048432,105.496964 
	C13.688996,107.672112 13.362107,109.420525 13.043219,111.170380 
	C12.094003,116.379082 14.050431,119.279663 18.227510,119.532921 
	C19.957275,111.961807 21.669939,104.465546 23.384462,96.961151 
	C28.975645,98.344620 33.728966,97.507118 34.713043,94.451485 
	C35.304947,92.613579 34.036976,90.176682 33.604824,88.008972 
	C28.460062,93.824158 23.728140,92.774933 18.152832,90.864983 
	C14.425192,89.587997 10.014210,89.944084 5.947052,90.192383 
	C4.247235,90.296150 2.646035,92.015305 0.999998,93.000000 
M42.701942,116.695145 
	C42.829197,116.820587 42.956448,116.946030 43.028362,117.816757 
	C43.303154,118.398590 43.434036,119.317039 43.876675,119.506271 
	C46.300304,120.542435 49.002003,122.446518 51.216843,122.020058 
	C53.374798,121.604546 55.932510,119.012321 56.605591,116.845001 
	C56.968533,115.676331 53.774708,113.374016 52.134838,111.630936 
	C51.670738,111.137642 51.027740,110.812653 51.564346,111.197380 
	C53.384743,109.342209 56.105068,107.788437 56.791893,105.597260 
	C57.952797,101.893623 54.274445,101.060905 51.685940,100.386734 
	C48.255081,99.493187 44.478645,103.025200 43.915974,106.677666 
	C43.594944,108.761559 42.420025,110.713921 41.297794,112.304695 
	C41.170593,112.179283 41.043396,112.053871 40.987640,111.071983 
	C41.207359,109.295692 41.696800,107.500504 41.574017,105.748207 
	C41.440376,103.841049 40.738323,101.973717 40.284088,100.089020 
	C38.847313,101.337936 37.075172,102.360413 36.046066,103.884583 
	C34.115959,106.743187 32.615784,109.892075 30.936794,112.920227 
	C30.551083,112.754196 30.165369,112.588158 29.779657,112.422127 
	C30.272400,109.750702 30.981064,107.094398 31.169632,104.401672 
	C31.268539,102.989296 30.455875,101.513069 30.054869,100.065681 
	C28.382177,101.111923 25.729719,101.826904 25.240669,103.273346 
	C24.221241,106.288445 24.126316,109.685143 24.049822,112.934425 
	C23.923893,118.283669 26.470865,119.656578 31.180939,116.914070 
	C32.414909,116.195580 33.464035,115.159622 34.647144,114.230919 
	C35.952976,120.389832 39.302948,117.751717 42.701942,116.695145 
M89.010231,93.516937 
	C93.231071,93.516937 97.451912,93.516937 101.758476,93.516937 
	C102.597801,91.853294 103.526779,90.011955 104.353973,88.372375 
	C109.327042,89.160690 107.927010,92.384453 106.304527,96.938843 
	C109.388161,96.165482 111.654312,96.079468 113.179268,94.972427 
	C113.772217,94.541969 112.692795,91.807800 112.459862,90.572235 
	C112.977676,89.430016 114.175743,87.727150 113.842186,87.338364 
	C113.002029,86.359131 111.507637,85.544106 110.209930,85.433685 
	C107.103165,85.169357 103.958687,85.348282 100.361610,85.348282 
	C99.854881,86.447250 99.147713,87.980888 98.230431,89.970238 
	C98.025414,87.935104 97.880898,86.500504 97.736374,85.065903 
	C96.083237,85.548653 95.462677,86.475464 94.857574,87.412262 
	C94.110054,88.569527 93.375389,89.735107 92.265266,91.477768 
	C92.557686,88.883507 92.770554,86.995033 92.983414,85.106552 
	C92.448975,84.914360 91.914528,84.722168 91.380089,84.529976 
	C90.337288,86.198006 89.294487,87.866028 88.859016,88.562599 
	C87.575661,87.483261 85.814537,85.014488 84.763130,85.286736 
	C79.897728,86.546516 81.471474,83.553596 81.856651,81.299782 
	C77.044289,81.828941 76.372932,83.731781 77.377563,94.186134 
	C81.025284,93.805092 84.683907,93.422905 89.010231,93.516937 
z"/>
<path fill="#FA8B02" opacity="1.000000" stroke="none" 
	d="
M128.629227,112.726379 
	C130.188721,111.487694 131.748230,110.249008 133.653870,109.005157 
	C134.000000,110.066673 134.000000,111.133339 133.714355,112.318298 
	C126.278679,116.805214 124.041695,124.992607 119.000000,131.000000 
	C116.299988,131.000000 113.599968,131.000000 110.449982,131.000000 
	C108.391571,125.754799 108.646347,121.174774 114.512108,118.804420 
	C112.629150,117.801949 110.872505,116.866722 109.738472,116.262962 
	C107.196892,116.780823 104.816483,117.265839 102.436081,117.750854 
	C101.906212,114.083305 101.376343,110.415749 100.874374,106.941284 
	C99.593163,109.018623 97.749519,111.705109 96.219093,114.559525 
	C93.858589,118.962143 93.372658,119.082893 90.955429,116.667068 
	C87.112511,116.667068 84.597549,116.509529 82.113731,116.719833 
	C80.315399,116.872101 77.724625,118.470711 76.923332,117.773605 
	C72.861137,114.239616 69.462250,116.510368 65.507141,117.835144 
	C61.393864,119.212898 57.891212,116.210968 58.096142,111.839188 
	C58.229191,109.000931 58.662609,105.806175 60.129883,103.521561 
	C61.247494,101.781395 64.346596,100.137260 66.303993,100.398643 
	C68.999382,100.758575 72.004433,102.588074 70.582550,106.955406 
	C69.068520,106.836700 67.542519,106.717064 65.918961,106.589767 
	C65.747856,106.784340 65.329597,107.044075 65.343948,107.277191 
	C65.481277,109.508392 61.697151,112.818939 66.074547,113.594109 
	C67.679420,113.878296 71.003075,110.456062 71.811119,108.124481 
	C74.314728,100.900482 74.979637,99.980927 82.253845,101.042084 
	C84.479782,101.366806 87.794212,97.620270 88.779160,102.136688 
	C89.248177,104.287331 87.842934,106.823799 87.395332,109.205910 
	C87.130486,110.615387 87.077721,112.064720 86.929596,113.496132 
	C87.397346,113.648048 87.865097,113.799957 88.332848,113.951874 
	C89.623734,110.468269 90.611115,106.823662 92.336769,103.570694 
	C93.168251,102.003288 95.298561,100.982880 97.045677,100.139168 
	C97.504852,99.917419 98.727928,101.277512 99.856873,102.097656 
	C104.914078,99.342178 109.181229,99.791985 108.779121,103.443703 
	C108.449158,106.440247 107.449234,109.363014 106.746277,112.318489 
	C107.174591,112.504730 107.602898,112.690971 108.031212,112.877213 
	C109.021698,110.887642 110.064949,108.922157 110.987297,106.901489 
	C111.848495,105.014801 112.220665,102.758461 113.506737,101.267433 
	C114.270218,100.382248 116.384712,100.662361 117.891769,100.418533 
	C117.946907,101.545662 118.242325,102.725006 118.010956,103.789886 
	C117.382553,106.682114 116.530983,109.525848 115.767876,112.388809 
	C116.143501,112.541496 116.519119,112.694183 116.894737,112.846870 
	C118.588097,109.949852 120.041084,106.869453 122.061134,104.221672 
	C123.361626,102.517044 125.495171,101.447968 127.255341,100.094025 
	C127.720985,102.312218 128.369537,104.512787 128.585648,106.755043 
	C128.721466,108.164436 128.208633,109.636345 127.679413,111.618500 
	C127.316086,112.608932 127.260155,113.061081 127.204224,113.513214 
	C127.679222,113.250938 128.154221,112.988663 128.629227,112.726379 
M118.950317,124.153252 
	C119.231316,122.846878 119.512314,121.540504 119.831436,120.056885 
	C112.908188,121.467354 111.076164,123.958755 113.425789,129.122528 
	C115.246513,127.629440 116.947960,126.234161 118.950317,124.153252 
z"/>
<path fill="#D5F1EC" opacity="1.000000" stroke="none" 
	d="
M67.531364,1.000000 
	C68.610298,1.787747 69.053963,2.942466 69.856483,3.306882 
	C78.572319,7.264635 84.385178,14.064318 88.428154,22.664787 
	C83.548531,23.682388 79.037514,24.322018 74.442581,24.587040 
	C73.921097,22.802731 73.483543,21.393026 73.028549,19.628372 
	C69.702515,16.107199 66.393921,12.940975 62.829880,9.491603 
	C54.984329,6.715893 48.127659,7.407004 42.311028,13.978623 
	C41.009495,15.758006 39.984470,17.371693 38.683365,19.236532 
	C37.902462,22.312508 37.397644,25.137333 36.456589,27.983641 
	C31.344355,27.643805 26.668356,27.282484 21.992359,26.921164 
	C24.343800,16.167236 30.798771,8.747335 40.562351,3.982720 
	C41.955631,3.302802 43.246685,2.413411 44.292526,1.310483 
	C51.687576,1.000000 59.375153,1.000000 67.531364,1.000000 
z"/>
<path fill="#FA8B02" opacity="1.000000" stroke="none" 
	d="
M0.999998,93.458069 
	C2.646035,92.015305 4.247235,90.296150 5.947052,90.192383 
	C10.014210,89.944084 14.425192,89.587997 18.152832,90.864983 
	C23.728140,92.774933 28.460062,93.824158 33.604824,88.008972 
	C34.036976,90.176682 35.304947,92.613579 34.713043,94.451485 
	C33.728966,97.507118 28.975645,98.344620 23.384462,96.961151 
	C21.669939,104.465546 19.957275,111.961807 18.227510,119.532921 
	C14.050431,119.279663 12.094003,116.379082 13.043219,111.170380 
	C13.362107,109.420525 13.688996,107.672112 14.386339,105.294968 
	C15.124578,100.918869 15.158420,97.004219 20.779598,95.138489 
	C17.836353,94.612297 16.011751,93.794563 14.439173,94.136368 
	C12.693995,94.515671 10.505232,95.613564 9.784790,97.041801 
	C9.245328,98.111259 10.611906,100.254074 11.350709,101.814384 
	C11.792653,102.747734 12.660157,103.479576 13.336376,104.301994 
	C9.171281,107.577919 5.357586,106.206207 1.325477,103.709244 
	C1.000000,100.638710 1.000000,97.277428 0.999998,93.458069 
z"/>
<path fill="#000000" opacity="1.000000" stroke="none" 
	d="
M119.472664,131.000000 
	C124.041695,124.992607 126.278679,116.805214 133.714355,112.718292 
	C134.000000,118.917786 134.000000,124.835571 134.000000,131.000000 
	C129.317963,131.000000 124.631645,131.000000 119.472664,131.000000 
z"/>
<path fill="#FFFFFF" opacity="1.000000" stroke="none" 
	d="
M134.000000,91.625000 
	C129.504318,92.846634 125.008621,93.693268 119.954941,94.644989 
	C120.433235,89.088554 118.836792,83.940674 124.548798,80.258011 
	C124.886032,82.374359 125.104408,83.744835 125.322792,85.115311 
	C125.712708,84.812630 126.102623,84.509941 126.492538,84.207253 
	C128.335327,85.828812 130.157501,87.475128 132.044022,89.044113 
	C132.313766,89.268456 132.894592,89.118790 133.665710,89.071114 
	C134.000000,89.750000 134.000000,90.500000 134.000000,91.625000 
z"/>
<path fill="#C5CC9C" opacity="1.000000" stroke="none" 
	d="
M21.132738,36.973763 
	C21.095379,35.907177 21.058018,34.840591 21.488836,33.325058 
	C27.005367,31.530962 32.053722,30.185816 37.415489,28.997982 
	C43.489326,28.819839 49.249752,28.484386 55.296616,28.404041 
	C67.333839,30.103022 79.084618,31.546892 90.835403,32.990765 
	C90.885124,35.035137 90.934845,37.079510 90.485664,39.562439 
	C86.532356,40.336346 83.027626,41.217575 79.633003,40.904560 
	C69.501511,39.970356 59.440701,38.178703 49.299980,37.462330 
	C39.946075,36.801540 30.524504,37.098598 21.132738,36.973763 
z"/>
<path fill="#C3C874" opacity="1.000000" stroke="none" 
	d="
M21.068024,37.400551 
	C30.524504,37.098598 39.946075,36.801540 49.299980,37.462330 
	C59.440701,38.178703 69.501511,39.970356 79.633003,40.904560 
	C83.027626,41.217575 86.532356,40.336346 90.416603,39.995129 
	C89.803886,43.837227 88.761337,47.685184 87.360748,51.267567 
	C86.616844,49.190376 86.230980,47.378769 85.705963,44.913864 
	C84.604019,47.403706 83.845528,49.117523 83.073837,50.455307 
	C82.972130,48.681747 82.883598,47.284222 82.776985,45.601173 
	C81.489502,47.548386 80.398079,49.199066 79.126541,50.588520 
	C77.980217,49.527401 77.014000,48.727509 76.025764,47.671772 
	C75.646149,47.216724 75.288551,47.017517 74.608871,46.873474 
	C73.856407,46.992874 73.426025,47.057106 72.750824,47.088303 
	C72.505997,47.055267 72.033356,47.199234 71.704269,47.175415 
	C69.989723,47.321381 68.604256,47.491161 67.648903,47.608231 
	C66.829102,48.654202 65.919052,49.815304 64.916771,50.724251 
	C64.492004,50.053844 64.159485,49.635597 63.836029,48.865723 
	C62.928581,48.315598 61.995190,47.904392 61.100063,47.975414 
	C60.104519,48.054409 59.143833,48.572720 58.118492,48.525333 
	C57.796078,46.842815 57.523140,45.534737 57.046741,43.251549 
	C55.220085,45.768410 54.042648,47.390751 52.500122,48.962997 
	C51.160789,48.926239 50.186550,48.939571 48.816231,48.927929 
	C45.669838,47.931282 42.919518,46.959614 40.088516,45.674763 
	C39.562267,44.700607 39.116707,44.039631 38.671143,43.378654 
	C38.373692,43.887550 38.076237,44.396450 37.400997,44.927841 
	C35.768696,44.898441 34.514179,44.846546 33.015549,44.542084 
	C31.848551,44.194340 30.925673,44.099159 29.665810,44.015335 
	C27.926952,44.575657 26.525076,45.124622 25.123201,45.673588 
	C24.644274,45.657604 24.165344,45.641621 23.316391,45.408421 
	C22.814497,45.001453 22.637350,44.937881 22.414923,45.000492 
	C21.944386,42.609440 21.473848,40.218388 21.068024,37.400551 
z"/>
<path fill="#FA8B02" opacity="1.000000" stroke="none" 
	d="
M42.370064,116.274170 
	C39.302948,117.751717 35.952976,120.389832 34.647144,114.230919 
	C33.464035,115.159622 32.414909,116.195580 31.180939,116.914070 
	C26.470865,119.656578 23.923893,118.283669 24.049822,112.934425 
	C24.126316,109.685143 24.221241,106.288445 25.240669,103.273346 
	C25.729719,101.826904 28.382177,101.111923 30.054871,100.065681 
	C30.455875,101.513069 31.268539,102.989296 31.169632,104.401672 
	C30.981064,107.094398 30.272400,109.750702 29.779657,112.422127 
	C30.165369,112.588158 30.551083,112.754196 30.936794,112.920227 
	C32.615784,109.892075 34.115959,106.743187 36.046066,103.884583 
	C37.075172,102.360413 38.847313,101.337936 40.284088,100.089020 
	C40.738323,101.973717 41.440376,103.841049 41.574017,105.748207 
	C41.696800,107.500504 41.207359,109.295692 40.680267,111.614655 
	C40.316906,112.609314 40.260918,113.061317 40.204926,113.513313 
	C40.679813,113.250710 41.154701,112.988106 41.629589,112.725502 
	C42.420025,110.713921 43.594944,108.761559 43.915974,106.677666 
	C44.478645,103.025200 48.255081,99.493187 51.685940,100.386734 
	C54.274445,101.060905 57.952797,101.893623 56.791893,105.597260 
	C56.105068,107.788437 53.384743,109.342209 51.564346,111.197380 
	C51.027740,110.812653 51.670738,111.137642 52.134838,111.630936 
	C53.774708,113.374016 56.968533,115.676331 56.605591,116.845001 
	C55.932510,119.012321 53.374798,121.604546 51.216843,122.020058 
	C49.002003,122.446518 46.300304,120.542435 43.876675,119.506271 
	C43.434036,119.317039 43.303154,118.398590 43.327808,117.329620 
	C43.683270,116.390305 43.739285,115.938133 43.795303,115.485954 
	C43.320225,115.748695 42.845142,116.011429 42.370064,116.274170 
z"/>
<path fill="#FFFFFF" opacity="1.000000" stroke="none" 
	d="
M88.676376,93.278824 
	C84.683907,93.422905 81.025284,93.805092 77.377563,94.186134 
	C76.372932,83.731781 77.044289,81.828941 81.856651,81.299782 
	C81.471474,83.553596 79.897728,86.546516 84.763130,85.286736 
	C85.814537,85.014488 87.575661,87.483261 88.859016,88.562599 
	C89.294487,87.866028 90.337288,86.198006 91.380089,84.529976 
	C91.914528,84.722168 92.448975,84.914360 92.983414,85.106552 
	C92.770554,86.995033 92.557686,88.883507 92.265266,91.477768 
	C93.375389,89.735107 94.110054,88.569527 94.857574,87.412262 
	C95.462677,86.475464 96.083237,85.548653 97.736374,85.065903 
	C97.880898,86.500504 98.025414,87.935104 98.230431,89.970238 
	C99.147713,87.980888 99.854881,86.447250 100.361610,85.348282 
	C103.958687,85.348282 107.103165,85.169357 110.209930,85.433685 
	C111.507637,85.544106 113.002029,86.359131 113.842186,87.338364 
	C114.175743,87.727150 112.977676,89.430016 112.459862,90.572235 
	C112.692795,91.807800 113.772217,94.541969 113.179268,94.972427 
	C111.654312,96.079468 109.388161,96.165482 106.304527,96.938843 
	C107.927010,92.384453 109.327042,89.160690 104.353973,88.372375 
	C103.526779,90.011955 102.597801,91.853294 101.758476,93.516937 
	C97.451912,93.516937 93.231071,93.516937 88.676376,93.278824 
z"/>
<path fill="#CFD5A6" opacity="1.000000" stroke="none" 
	d="
M90.908928,32.585239 
	C79.084618,31.546892 67.333839,30.103022 55.729568,28.328358 
	C57.370117,27.906494 58.964485,28.120699 60.339882,27.668652 
	C64.965370,26.148399 70.438545,29.138140 74.526505,24.961651 
	C79.037514,24.322018 83.548531,23.682388 88.450363,23.018883 
	C89.554939,26.056578 90.268692,29.118145 90.908928,32.585239 
z"/>
<path fill="#DDCCA9" opacity="1.000000" stroke="none" 
	d="
M29.135506,57.914108 
	C29.059000,56.845989 28.982494,55.777874 29.452803,54.337959 
	C34.658432,53.930069 39.317245,53.893978 44.244507,54.150120 
	C44.617310,56.590874 44.721664,58.739395 44.478085,60.892025 
	C41.802296,60.047852 39.675369,59.779957 38.421040,62.867599 
	C37.750309,63.295902 37.339287,63.639324 36.782700,63.899361 
	C36.637138,63.815975 36.307907,63.751373 36.207851,63.387947 
	C35.934071,62.077148 35.760345,61.129772 35.438450,59.374371 
	C31.714130,63.809212 31.230528,58.667023 29.135506,57.914108 
z"/>
<path fill="#5B5E2E" opacity="1.000000" stroke="none" 
	d="
M83.075005,60.166634 
	C81.286751,62.384663 79.498505,64.602692 77.376358,66.707275 
	C76.987686,66.436569 76.963890,66.256271 76.869072,66.128815 
	C76.781296,66.010811 76.560860,65.843628 76.495590,65.878616 
	C75.219696,66.562447 74.024834,67.676575 72.680374,67.899147 
	C69.155441,68.482697 65.566528,68.679733 61.768173,68.886108 
	C61.335388,68.435249 61.137543,68.129089 61.209656,67.554810 
	C65.695984,66.267982 69.912354,65.249275 74.128716,64.230576 
	C73.669205,63.849503 73.209694,63.468433 72.750183,63.087364 
	C73.156410,61.414108 73.562630,59.740852 74.373451,58.048481 
	C75.856316,58.024929 76.934570,58.020496 77.915970,58.283806 
	C79.240280,58.694004 80.661469,58.836464 82.310226,58.985306 
	C82.537796,58.991688 82.992714,59.011066 83.005890,59.300484 
	C83.037712,59.782146 83.056358,59.974392 83.075005,60.166634 
z"/>
<path fill="#F78A04" opacity="1.000000" stroke="none" 
	d="
M43.976059,53.857887 
	C39.317245,53.893978 34.658432,53.930069 29.539703,53.944157 
	C29.079792,53.922153 28.922251,53.498875 29.014341,52.985573 
	C29.388569,51.989513 29.670706,51.506756 30.110344,51.307819 
	C31.240000,51.483135 32.212154,51.374630 33.475555,51.159027 
	C34.303432,50.450901 34.840065,49.849873 35.694016,49.192261 
	C36.651154,49.061066 37.290977,48.986450 38.306633,48.926414 
	C39.178047,47.956646 39.673626,46.972294 40.169201,45.987942 
	C42.919518,46.959614 45.669838,47.931282 48.660362,49.233860 
	C47.259064,50.995808 45.617561,52.426849 43.976059,53.857887 
z"/>
<path fill="#354E24" opacity="1.000000" stroke="none" 
	d="
M82.992714,59.011066 
	C82.992714,59.011066 82.537796,58.991688 82.089645,58.724499 
	C80.761627,58.291950 79.881760,58.126587 78.872688,57.684189 
	C78.444603,56.875530 78.145706,56.343906 77.868919,55.522781 
	C77.732391,54.737000 77.573761,54.240723 77.415123,53.744446 
	C77.254547,54.174843 77.093971,54.605236 76.611694,55.031113 
	C75.861046,55.025646 75.432098,55.024700 74.974396,54.703506 
	C74.196083,53.603672 73.446526,52.824093 72.033356,51.354321 
	C72.033356,50.845318 72.033356,49.022274 72.033356,47.199234 
	C72.033356,47.199234 72.505997,47.055267 72.790497,47.398895 
	C73.490654,48.319187 73.906311,48.895847 74.930954,50.317413 
	C74.930954,48.427639 74.930954,47.622974 74.930954,46.818314 
	C75.288551,47.017517 75.646149,47.216724 76.018623,48.065315 
	C77.124550,49.426384 78.215607,50.138065 79.306656,50.849747 
	C80.398079,49.199066 81.489502,47.548386 82.776985,45.601173 
	C82.883598,47.284222 82.972130,48.681747 83.042343,50.874329 
	C83.351143,53.786392 83.678253,55.903400 84.005356,58.020412 
	C83.987289,58.191837 83.969223,58.363262 83.696831,58.773537 
	C83.442505,59.012383 82.992714,59.011066 82.992714,59.011066 
z"/>
<path fill="#C6B144" opacity="1.000000" stroke="none" 
	d="
M37.161671,73.943169 
	C36.215160,72.864708 35.268646,71.786247 34.534035,70.350670 
	C34.882156,69.896767 35.018379,69.799973 35.406651,69.664467 
	C35.997349,69.597847 36.335995,69.569931 37.101315,69.658401 
	C41.722160,69.467484 45.916332,69.160187 50.510040,68.912247 
	C51.979412,69.036163 53.049252,69.100723 54.110096,69.370461 
	C54.101097,69.575638 54.107109,69.986153 53.965309,70.285019 
	C52.074341,71.772293 50.789112,74.783859 47.697853,72.035728 
	C46.892857,72.042717 46.433090,72.068817 45.628136,72.233643 
	C42.575855,72.895966 39.868763,73.419563 37.161671,73.943169 
z"/>
<path fill="#D5D7AC" opacity="1.000000" stroke="none" 
	d="
M37.102074,28.840668 
	C32.053722,30.185816 27.005367,31.530962 21.562843,32.930550 
	C21.197983,31.086700 21.227291,29.188406 21.624477,27.105639 
	C26.668356,27.282484 31.344355,27.643805 36.534115,28.197260 
	C37.047878,28.389395 37.102074,28.840668 37.102074,28.840668 
z"/>
<path fill="#8C7728" opacity="1.000000" stroke="none" 
	d="
M62.003113,69.030800 
	C65.566528,68.679733 69.155441,68.482697 72.680374,67.899147 
	C74.024834,67.676575 75.219696,66.562447 76.495590,65.878616 
	C76.560860,65.843628 76.781296,66.010811 76.869072,66.128815 
	C76.963890,66.256271 76.987686,66.436569 77.091934,66.900131 
	C76.950859,68.394577 76.760315,69.582718 76.124664,70.684715 
	C73.457161,72.067230 71.234772,73.535889 69.009583,74.757668 
	C69.006798,74.510796 68.994850,74.017151 68.967514,73.717522 
	C68.277214,73.294685 67.614265,73.171478 66.642174,73.006516 
	C64.884476,71.954247 63.435917,70.943726 61.992355,69.707993 
	C61.997356,69.482773 62.003113,69.030800 62.003113,69.030800 
z"/>
<path fill="#766328" opacity="1.000000" stroke="none" 
	d="
M61.987358,69.933205 
	C63.435917,70.943726 64.884476,71.954247 66.819046,73.247795 
	C67.868317,73.692932 68.431580,73.855042 68.994850,74.017151 
	C68.994850,74.017151 69.006798,74.510796 68.888229,75.037735 
	C68.848694,76.673302 68.927719,77.781944 69.006737,78.890579 
	C68.530014,79.219109 68.053299,79.547638 67.041687,79.673782 
	C64.355240,79.321388 62.203686,79.171387 60.042152,78.714233 
	C59.687904,77.291191 59.343636,76.175293 59.163597,74.783081 
	C60.214344,72.982246 61.100849,71.457726 61.987358,69.933205 
z"/>
<path fill="#DFDBA8" opacity="1.000000" stroke="none" 
	d="
M52.900234,92.949295 
	C51.318565,91.197845 49.736897,89.446404 48.487255,87.283981 
	C53.237877,87.250053 57.656467,87.627098 62.075058,88.004143 
	C60.750900,89.444244 59.426739,90.884346 57.927620,92.921082 
	C56.135185,93.328239 54.517712,93.138771 52.900234,92.949295 
z"/>
<path fill="#9A923A" opacity="1.000000" stroke="none" 
	d="
M29.952843,51.023998 
	C29.670706,51.506756 29.388569,51.989513 29.030392,52.760323 
	C27.568794,52.794186 26.183237,52.539997 24.269972,52.188995 
	C24.614399,50.145477 24.923145,48.313648 25.177547,46.077705 
	C26.525076,45.124622 27.926952,44.575657 29.560303,44.286491 
	C30.284044,45.055897 30.776312,45.565510 31.149609,46.357399 
	C30.824709,47.398052 30.618778,48.156425 30.366392,49.272346 
	C30.197571,50.094589 30.075207,50.559296 29.952843,51.023998 
z"/>
<path fill="#FAFAF3" opacity="1.000000" stroke="none" 
	d="
M52.467705,92.966370 
	C54.517712,93.138771 56.135185,93.328239 57.904350,93.249908 
	C60.367416,92.982109 62.678791,92.982109 64.990166,92.982109 
	C64.975647,93.481255 64.961136,93.980408 64.946617,94.479553 
	C59.009438,94.479553 53.072262,94.479553 47.135082,94.479553 
	C47.076351,94.149414 47.017620,93.819267 46.958885,93.489128 
	C48.650986,93.320572 50.343082,93.152008 52.467705,92.966370 
z"/>
<path fill="#323810" opacity="1.000000" stroke="none" 
	d="
M36.674644,69.542015 
	C36.335995,69.569931 35.997349,69.597847 35.293159,69.533951 
	C34.719311,69.338562 34.517479,69.223602 34.322128,69.097267 
	C33.290104,67.980194 32.258080,66.863129 31.340330,65.101593 
	C33.072372,64.221870 34.690140,63.986622 36.307907,63.751373 
	C36.307907,63.751373 36.637138,63.815975 36.869598,64.134857 
	C37.801266,64.628967 38.500481,64.804199 39.134216,65.326263 
	C38.270710,66.962730 37.472675,68.252373 36.674644,69.542015 
z"/>
<path fill="#526734" opacity="1.000000" stroke="none" 
	d="
M84.317345,57.861351 
	C83.678253,55.903400 83.351143,53.786392 83.055534,51.250359 
	C83.845528,49.117523 84.604019,47.403706 85.705963,44.913864 
	C86.230980,47.378769 86.616844,49.190376 87.011429,51.369980 
	C86.223213,53.726082 85.426270,55.714188 84.317345,57.861351 
z"/>
<path fill="#866836" opacity="1.000000" stroke="none" 
	d="
M62.348640,87.910156 
	C57.656467,87.627098 53.237877,87.250053 48.366611,86.979347 
	C47.363419,86.594078 46.812901,86.102478 46.656269,85.317413 
	C50.063358,85.015747 53.076565,85.007530 56.417404,85.004532 
	C57.181946,85.044914 57.618858,85.080078 58.318359,85.388367 
	C60.381859,85.773933 62.182762,85.886375 63.983665,85.998825 
	C63.529854,86.604607 63.076038,87.210388 62.348640,87.910156 
z"/>
<path fill="#937F28" opacity="1.000000" stroke="none" 
	d="
M69.357925,78.915276 
	C68.927719,77.781944 68.848694,76.673302 68.891022,75.284607 
	C71.234772,73.535889 73.457161,72.067230 75.868225,70.846115 
	C73.940971,73.709091 71.825035,76.324532 69.357925,78.915276 
z"/>
<path fill="#6F692C" opacity="1.000000" stroke="none" 
	d="
M36.207851,63.387947 
	C34.690140,63.986622 33.072372,64.221870 31.215111,64.788933 
	C30.341774,62.945156 29.707928,60.769573 29.104794,58.254047 
	C31.230528,58.667023 31.714130,63.809212 35.438450,59.374371 
	C35.760345,61.129772 35.934071,62.077148 36.207851,63.387947 
z"/>
<path fill="#5E4D25" opacity="1.000000" stroke="none" 
	d="
M56.089767,84.999313 
	C53.076565,85.007530 50.063358,85.015747 46.606731,85.039856 
	C45.846291,84.562866 45.529278,84.069977 45.427879,83.251595 
	C46.114021,82.863708 46.584549,82.801315 47.316330,82.945404 
	C48.381561,83.431030 49.185539,83.710159 50.312790,83.961761 
	C51.105484,83.301163 51.574905,82.668106 52.433937,82.040596 
	C53.859989,82.054344 54.896423,82.062553 55.952171,82.067703 
	C55.971481,82.064644 55.975040,82.025696 55.963017,82.397415 
	C55.997250,83.512520 56.043510,84.255920 56.089767,84.999313 
z"/>
<path fill="#5A4C24" opacity="1.000000" stroke="none" 
	d="
M64.238861,85.923538 
	C62.182762,85.886375 60.381859,85.773933 58.523048,85.264709 
	C58.546902,84.731651 58.729267,84.549973 58.692013,84.467407 
	C58.568192,84.193069 58.365414,83.954369 58.177967,83.603279 
	C58.163025,83.504555 58.196938,83.307762 58.425491,83.167664 
	C58.847004,82.730003 59.039959,82.432434 59.574745,82.150421 
	C61.624561,82.774345 63.332546,83.382729 65.040527,83.991112 
	C64.858368,84.610161 64.676208,85.229218 64.238861,85.923538 
z"/>
<path fill="#B47F24" opacity="1.000000" stroke="none" 
	d="
M37.190205,74.263252 
	C39.868763,73.419563 42.575855,72.895966 45.634125,72.552521 
	C45.987495,73.160393 45.989685,73.588097 45.662834,74.010109 
	C44.894924,74.006599 44.456059,74.008797 43.710060,74.135765 
	C42.600861,75.192955 41.798786,76.125374 40.997013,77.247757 
	C40.997318,77.437737 40.991814,77.817642 40.991814,77.817642 
	C39.734119,76.739540 38.476429,75.661438 37.190205,74.263252 
z"/>
<path fill="#AC7420" opacity="1.000000" stroke="none" 
	d="
M41.218620,77.881630 
	C40.991814,77.817642 40.997318,77.437737 41.314209,77.209549 
	C42.411137,76.656242 43.191170,76.331131 44.309734,76.008194 
	C45.098450,76.005280 45.548641,76.000183 46.364586,75.995529 
	C47.816235,76.331367 48.902122,76.666763 49.972881,77.249008 
	C49.957752,77.495850 49.974518,77.990173 49.982811,77.996933 
	C49.991108,78.003685 49.990494,77.986359 49.655807,77.985565 
	C48.873737,78.005241 48.426350,78.025703 47.545876,78.034554 
	C45.376747,78.032501 43.640709,78.042061 41.904671,78.051620 
	C41.904671,78.051613 41.445427,77.945618 41.218620,77.881630 
z"/>
<path fill="#896A27" opacity="1.000000" stroke="none" 
	d="
M65.123886,83.679291 
	C63.332546,83.382729 61.624561,82.774345 59.564171,81.913246 
	C59.309631,81.330635 59.523495,81.116844 60.290245,81.007874 
	C62.471684,80.997688 64.216225,80.998764 65.960762,80.999840 
	C65.709587,81.789047 65.458420,82.578255 65.123886,83.679291 
z"/>
<path fill="#5E4D25" opacity="1.000000" stroke="none" 
	d="
M66.193909,80.917442 
	C64.216225,80.998764 62.471684,80.997688 60.338783,80.675858 
	C59.984329,79.910538 60.018234,79.465958 60.052139,79.021385 
	C62.203686,79.171387 64.355240,79.321388 66.766533,79.770561 
	C66.920486,80.398399 66.720741,80.653503 66.193909,80.917442 
z"/>
<path fill="#AC7420" opacity="1.000000" stroke="none" 
	d="
M47.055077,82.738914 
	C46.584549,82.801315 46.114021,82.863708 45.293209,82.990738 
	C44.034004,82.255287 43.125080,81.455200 42.401917,80.301659 
	C42.587673,79.948212 43.024715,79.790367 43.432976,79.818680 
	C45.204391,79.858871 46.567547,79.870743 47.846764,80.178230 
	C47.526913,81.228867 47.290993,81.983894 47.055077,82.738914 
z"/>
<path fill="#5E4D25" opacity="1.000000" stroke="none" 
	d="
M47.930698,79.882614 
	C46.567547,79.870743 45.204391,79.858871 43.319008,79.654045 
	C42.610245,79.253067 42.381226,79.115944 42.109715,79.049736 
	C42.069969,78.884583 42.030220,78.719421 41.947571,78.302948 
	C43.640709,78.042061 45.376747,78.032501 47.554932,78.275398 
	C47.997074,78.527855 48.006107,79.013229 47.982811,79.230194 
	C47.959515,79.447151 47.930698,79.882614 47.930698,79.882614 
z"/>
<path fill="#765A22" opacity="1.000000" stroke="none" 
	d="
M42.080616,79.300461 
	C42.381226,79.115944 42.610245,79.253067 42.910744,79.625732 
	C43.024715,79.790367 42.587673,79.948212 42.360950,79.998688 
	C42.106659,79.883179 42.079086,79.717178 42.080616,79.300461 
z"/>
<path fill="#9A923A" opacity="1.000000" stroke="none" 
	d="
M22.357157,45.200691 
	C22.637350,44.937881 22.814497,45.001453 22.963390,45.339569 
	C22.980417,45.487938 22.609999,45.677055 22.609999,45.677055 
	C22.609999,45.677055 22.299391,45.400887 22.357157,45.200691 
z"/>
<path fill="#857E2C" opacity="1.000000" stroke="none" 
	d="
M34.254745,69.344482 
	C34.517479,69.223602 34.719311,69.338562 35.041111,69.572655 
	C35.018379,69.799973 34.882156,69.896767 34.500946,70.046555 
	C34.233089,69.930260 34.210224,69.760979 34.254745,69.344482 
z"/>
<path fill="#5C5749" opacity="1.000000" stroke="none" 
	d="
M83.005890,59.300484 
	C82.992714,59.011066 83.442505,59.012383 83.665863,59.030235 
	C83.953262,59.420940 83.827332,59.711502 83.293213,60.043205 
	C83.056358,59.974392 83.037712,59.782146 83.005890,59.300484 
z"/>
<path fill="#000000" opacity="1.000000" stroke="none" 
	d="
M118.799858,124.496063 
	C116.947960,126.234161 115.246513,127.629440 113.425789,129.122528 
	C111.076164,123.958755 112.908188,121.467354 119.831436,120.056885 
	C119.512314,121.540504 119.231316,122.846878 118.799858,124.496063 
z"/>
<path fill="#000000" opacity="1.000000" stroke="none" 
	d="
M128.463257,112.515533 
	C128.154221,112.988663 127.679222,113.250938 127.204224,113.513214 
	C127.260155,113.061081 127.316086,112.608932 127.643677,112.042229 
	C128.042648,112.053337 128.169968,112.179008 128.463257,112.515533 
z"/>
<path fill="#CE7419" opacity="1.000000" stroke="none" 
	d="
M37.415489,28.997982 
	C37.102074,28.840668 37.047878,28.389395 36.970352,28.175776 
	C37.397644,25.137333 37.902462,22.312508 39.103653,19.239681 
	C42.244183,18.726662 44.751766,17.975052 47.121128,18.283873 
	C55.736176,19.406748 64.206390,22.314087 73.045990,19.983324 
	C73.483543,21.393026 73.921097,22.802731 74.442581,24.587042 
	C70.438545,29.138140 64.965370,26.148399 60.339882,27.668652 
	C58.964485,28.120699 57.370117,27.906494 55.443130,28.073250 
	C49.249752,28.484386 43.489326,28.819839 37.415489,28.997982 
z"/>
<path fill="#D37918" opacity="1.000000" stroke="none" 
	d="
M73.028549,19.628372 
	C64.206390,22.314087 55.736176,19.406748 47.121128,18.283873 
	C44.751766,17.975052 42.244183,18.726662 39.379738,18.988529 
	C39.984470,17.371693 41.009495,15.758006 42.793243,14.033714 
	C50.429462,14.265469 57.070633,13.495067 63.085323,9.774752 
	C66.393921,12.940975 69.702515,16.107199 73.028549,19.628372 
z"/>
<path fill="#E18A31" opacity="1.000000" stroke="none" 
	d="
M62.829880,9.491602 
	C57.070633,13.495067 50.429462,14.265469 43.069752,13.868018 
	C48.127659,7.407004 54.984329,6.715893 62.829880,9.491602 
z"/>
<path fill="#000000" opacity="1.000000" stroke="none" 
	d="
M13.513809,104.503586 
	C12.660157,103.479576 11.792653,102.747734 11.350709,101.814384 
	C10.611906,100.254074 9.245328,98.111259 9.784790,97.041801 
	C10.505232,95.613564 12.693995,94.515671 14.439173,94.136368 
	C16.011751,93.794563 17.836353,94.612297 20.779598,95.138489 
	C15.158420,97.004219 15.124578,100.918869 14.422543,104.868881 
	C13.953505,104.948982 13.822372,104.827080 13.513809,104.503586 
z"/>
<path fill="#73655B" opacity="1.000000" stroke="none" 
	d="
M44.244507,54.150124 
	C45.617561,52.426849 47.259064,50.995808 49.056435,49.258835 
	C50.186550,48.939571 51.160789,48.926239 52.920341,48.954334 
	C58.242531,50.583000 54.969486,54.405190 55.776199,57.186615 
	C55.389847,57.921597 55.222679,58.467133 54.706001,59.037609 
	C52.774403,60.036610 51.192314,61.010662 49.255436,61.983139 
	C47.542435,61.617012 46.184227,61.252464 44.826019,60.887917 
	C44.721664,58.739395 44.617310,56.590874 44.244507,54.150124 
z"/>
<path fill="#4C501F" opacity="1.000000" stroke="none" 
	d="
M71.704269,47.175415 
	C72.033356,49.022274 72.033356,50.845318 72.033356,51.354321 
	C73.446526,52.824093 74.196083,53.603672 74.890694,55.085686 
	C72.518654,56.170544 70.201553,56.552963 67.798813,56.630928 
	C66.806229,55.853363 65.899307,55.380253 64.997406,54.514153 
	C65.004616,53.072910 65.006813,52.024658 65.009010,50.976410 
	C65.919052,49.815304 66.829102,48.654202 67.648903,47.608231 
	C68.604256,47.491161 69.989723,47.321381 71.704269,47.175415 
z"/>
<path fill="#3C4827" opacity="1.000000" stroke="none" 
	d="
M55.995388,56.997162 
	C54.969486,54.405190 58.242531,50.583000 53.285427,49.004425 
	C54.042648,47.390751 55.220085,45.768410 57.046741,43.251549 
	C57.523140,45.534737 57.796078,46.842815 58.044594,48.941811 
	C58.346302,52.153023 58.672436,54.573322 58.998795,56.996979 
	C58.999023,57.000343 58.991043,56.995781 58.614861,56.964928 
	C57.491295,56.954784 56.743912,56.975494 55.998253,56.998081 
	C55.999969,56.999958 55.995388,56.997162 55.995388,56.997162 
z"/>
<path fill="#918B34" opacity="1.000000" stroke="none" 
	d="
M58.998573,56.993618 
	C58.672436,54.573322 58.346302,52.153023 58.094070,49.316250 
	C59.143833,48.572720 60.104519,48.054409 61.100063,47.975414 
	C61.995190,47.904392 62.928581,48.315598 63.602318,49.066612 
	C62.924065,51.468342 62.488586,53.317554 61.873550,55.411263 
	C60.795517,56.101711 59.897045,56.547665 58.998573,56.993618 
z"/>
<path fill="#3E4718" opacity="1.000000" stroke="none" 
	d="
M62.053108,55.166771 
	C62.488586,53.317554 62.924065,51.468342 63.593254,49.418240 
	C64.159485,49.635597 64.492004,50.053844 64.916771,50.724251 
	C65.006813,52.024658 65.004616,53.072910 64.630135,54.548771 
	C63.522934,55.039845 62.788021,55.103306 62.053108,55.166771 
z"/>
<path fill="#939D4B" opacity="1.000000" stroke="none" 
	d="
M37.930798,48.911835 
	C37.290977,48.986450 36.651154,49.061066 35.538383,48.863518 
	C34.980938,48.365219 34.896450,48.139084 34.789635,47.606834 
	C34.199024,46.727882 33.630737,46.155048 33.098190,45.381927 
	C33.133934,45.181641 33.259666,44.794651 33.259666,44.794647 
	C34.514179,44.846546 35.768696,44.898441 37.466843,45.325340 
	C37.917248,46.770844 37.924023,47.841339 37.930798,48.911835 
z"/>
<path fill="#2F481E" opacity="1.000000" stroke="none" 
	d="
M38.306633,48.926414 
	C37.924023,47.841339 37.917248,46.770844 37.844627,45.302849 
	C38.076237,44.396450 38.373692,43.887550 38.671143,43.378654 
	C39.116707,44.039631 39.562267,44.700607 40.088516,45.674763 
	C39.673626,46.972294 39.178047,47.956646 38.306633,48.926414 
z"/>
<path fill="#857E2C" opacity="1.000000" stroke="none" 
	d="
M33.015549,44.542088 
	C33.259666,44.794651 33.133934,45.181641 32.799644,45.472977 
	C32.066429,45.867912 31.667503,45.971516 31.268578,46.075119 
	C30.776312,45.565510 30.284044,45.055897 29.897285,44.275131 
	C30.925673,44.099159 31.848551,44.194340 33.015549,44.542088 
z"/>
<path fill="#4C501F" opacity="1.000000" stroke="none" 
	d="
M79.126541,50.588520 
	C78.215607,50.138065 77.124550,49.426384 76.040642,48.321159 
	C77.014000,48.727509 77.980217,49.527401 79.126541,50.588520 
z"/>
<path fill="#4C501F" opacity="1.000000" stroke="none" 
	d="
M74.608871,46.873474 
	C74.930954,47.622974 74.930954,48.427639 74.930954,50.317413 
	C73.906311,48.895847 73.490654,48.319187 73.035324,47.431931 
	C73.426025,47.057106 73.856407,46.992874 74.608871,46.873474 
z"/>
<path fill="#000000" opacity="1.000000" stroke="none" 
	d="
M41.463692,112.515099 
	C41.154701,112.988106 40.679813,113.250710 40.204926,113.513313 
	C40.260918,113.061317 40.316906,112.609314 40.644547,112.042885 
	C41.043396,112.053871 41.170593,112.179283 41.463692,112.515099 
z"/>
<path fill="#000000" opacity="1.000000" stroke="none" 
	d="
M42.536003,116.484657 
	C42.845142,116.011429 43.320225,115.748695 43.795303,115.485954 
	C43.739285,115.938133 43.683270,116.390305 43.355476,116.956970 
	C42.956448,116.946030 42.829197,116.820587 42.536003,116.484657 
z"/>
<path fill="#857E2C" opacity="1.000000" stroke="none" 
	d="
M44.478085,60.892025 
	C46.184227,61.252464 47.542435,61.617012 49.240334,62.314846 
	C48.985172,64.244530 48.390324,65.840919 47.823711,67.361542 
	C48.581383,67.855659 49.345947,68.354271 50.110508,68.852890 
	C45.916332,69.160187 41.722160,69.467484 37.101311,69.658401 
	C37.472675,68.252373 38.270710,66.962730 39.339489,65.126038 
	C39.300407,63.980225 38.990578,63.381474 38.680748,62.782719 
	C39.675369,59.779957 41.802296,60.047852 44.478085,60.892025 
z"/>
<path fill="#6F692C" opacity="1.000000" stroke="none" 
	d="
M38.421040,62.867599 
	C38.990578,63.381474 39.300407,63.980225 39.404964,64.779205 
	C38.500481,64.804199 37.801266,64.628967 37.015160,64.218239 
	C37.339287,63.639324 37.750309,63.295902 38.421040,62.867599 
z"/>
<path fill="#2A3912" opacity="1.000000" stroke="none" 
	d="
M50.510040,68.912247 
	C49.345947,68.354271 48.581383,67.855659 47.823711,67.361542 
	C48.390324,65.840919 48.985172,64.244530 49.595123,62.316429 
	C51.192314,61.010662 52.774403,60.036610 54.927032,59.047028 
	C55.497578,59.031498 55.940346,59.003689 56.171112,59.190697 
	C57.137966,59.660454 57.874054,59.943199 58.655739,60.570625 
	C59.694740,61.406250 60.688152,61.897194 61.681561,62.388134 
	C62.024834,60.986401 62.368107,59.584663 62.711380,58.182930 
	C62.965794,58.203606 63.220211,58.224285 63.474625,58.244961 
	C63.747120,59.423798 64.019615,60.602634 64.452141,62.473770 
	C66.336540,61.006538 67.660477,59.975693 69.008728,59.265480 
	C69.186035,60.267464 69.339020,60.948814 69.492004,61.630165 
	C69.673500,61.601040 69.855003,61.571918 70.036499,61.542793 
	C70.036499,60.386833 70.036499,59.230877 70.430115,58.067619 
	C71.872101,58.062744 72.920479,58.065170 73.968849,58.067596 
	C73.562630,59.740852 73.156410,61.414108 72.750183,63.087364 
	C73.209694,63.468433 73.669205,63.849503 74.128716,64.230576 
	C69.912354,65.249275 65.695984,66.267982 60.884949,67.624603 
	C59.495651,68.339806 58.701012,68.717079 57.526558,69.060928 
	C56.137524,69.073441 55.128307,69.119362 54.119095,69.165283 
	C53.049252,69.100723 51.979412,69.036163 50.510040,68.912247 
z"/>
<path fill="#927F2A" opacity="1.000000" stroke="none" 
	d="
M57.906376,69.094353 
	C58.701012,68.717079 59.495651,68.339806 60.614990,67.892731 
	C61.137543,68.129089 61.335388,68.435249 61.768173,68.886108 
	C62.003113,69.030800 61.997356,69.482773 61.992355,69.707993 
	C61.100849,71.457726 60.214344,72.982246 59.128746,75.138023 
	C57.944786,77.854752 56.959915,79.940224 55.975044,82.025696 
	C55.975040,82.025696 55.971481,82.064644 55.925621,81.714066 
	C54.270115,81.247581 52.660473,81.131683 51.015419,80.712463 
	C50.647797,79.934311 50.315586,79.459473 49.993111,78.735123 
	C50.002850,78.485611 49.990494,77.986359 49.990494,77.986359 
	C49.990494,77.986359 49.991108,78.003685 50.158138,77.917908 
	C50.391323,77.723625 50.537613,77.551628 50.510315,77.517181 
	C50.359600,77.326981 50.166550,77.170319 49.988010,77.002159 
	C48.902122,76.666763 47.816235,76.331367 46.368256,75.742836 
	C46.010075,75.321121 46.013981,75.152527 46.361343,74.940063 
	C47.150890,73.949074 47.596985,73.001953 48.043083,72.054832 
	C50.789112,74.783859 52.074341,71.772293 54.316681,70.294342 
	C55.842026,69.701317 56.874199,69.397835 57.906376,69.094353 
z"/>
<path fill="#5E3A2C" opacity="1.000000" stroke="none" 
	d="
M74.373451,58.048481 
	C72.920479,58.065170 71.872101,58.062744 70.160599,58.052490 
	C69.317818,58.047771 69.138153,58.050877 68.704941,57.999252 
	C68.117744,57.798992 67.784088,57.653461 67.450424,57.507935 
	C67.595100,57.317085 67.739784,57.126236 67.884460,56.935387 
	C70.201553,56.552963 72.518654,56.170544 74.919449,55.405937 
	C75.432098,55.024700 75.861046,55.025646 76.728355,55.203983 
	C77.323723,55.635075 77.550430,55.778706 77.846817,55.812279 
	C78.145706,56.343906 78.444603,56.875530 78.625526,57.699989 
	C78.507561,57.992825 78.012833,58.016064 78.012833,58.016064 
	C76.934570,58.020496 75.856316,58.024929 74.373451,58.048481 
z"/>
<path fill="#5C5749" opacity="1.000000" stroke="none" 
	d="
M77.915970,58.283806 
	C78.012833,58.016064 78.507561,57.992825 78.754723,57.977024 
	C79.881760,58.126587 80.761627,58.291950 81.862076,58.718117 
	C80.661469,58.836464 79.240280,58.694004 77.915970,58.283806 
z"/>
<path fill="#4C501F" opacity="1.000000" stroke="none" 
	d="
M30.110344,51.307819 
	C30.075207,50.559296 30.197571,50.094589 30.622044,49.283073 
	C31.268875,48.942116 31.613598,48.947975 32.094959,49.251411 
	C32.549168,50.121368 32.866737,50.693745 33.184307,51.266125 
	C32.212154,51.374630 31.240000,51.483135 30.110344,51.307819 
z"/>
<path fill="#5E5E1C" opacity="1.000000" stroke="none" 
	d="
M33.475555,51.159027 
	C32.866737,50.693745 32.549168,50.121368 32.302193,49.010490 
	C33.185848,48.285645 33.998901,48.099297 34.811958,47.912949 
	C34.896450,48.139084 34.980938,48.365219 35.221062,48.920097 
	C34.840065,49.849873 34.303432,50.450901 33.475555,51.159027 
z"/>
<path fill="#939D4B" opacity="1.000000" stroke="none" 
	d="
M77.868927,55.522778 
	C77.550430,55.778706 77.323723,55.635075 77.050049,55.208504 
	C77.093971,54.605236 77.254547,54.174843 77.415123,53.744446 
	C77.573761,54.240723 77.732391,54.737000 77.868927,55.522778 
z"/>
<path fill="#A7972B" opacity="1.000000" stroke="none" 
	d="
M47.697853,72.035728 
	C47.596985,73.001953 47.150890,73.949074 46.352310,74.698456 
	C45.999828,74.500725 45.991875,74.015808 45.991875,74.015808 
	C45.989685,73.588097 45.987495,73.160393 45.979309,72.413795 
	C46.433090,72.068817 46.892857,72.042717 47.697853,72.035728 
z"/>
<path fill="#D2C097" opacity="1.000000" stroke="none" 
	d="
M57.526558,69.060928 
	C56.874199,69.397835 55.842026,69.701317 54.458481,69.995476 
	C54.107109,69.986153 54.101097,69.575638 54.110096,69.370461 
	C55.128307,69.119362 56.137524,69.073441 57.526558,69.060928 
z"/>
<path fill="#937F28" opacity="1.000000" stroke="none" 
	d="
M68.967514,73.717522 
	C68.431580,73.855042 67.868317,73.692932 67.128174,73.289551 
	C67.614265,73.171478 68.277214,73.294685 68.967514,73.717522 
z"/>
<path fill="#A7972B" opacity="1.000000" stroke="none" 
	d="
M55.963020,82.397415 
	C56.959915,79.940224 57.944786,77.854752 58.964512,75.414337 
	C59.343636,76.175293 59.687904,77.291191 60.042156,78.714233 
	C60.018234,79.465958 59.984329,79.910538 59.901886,80.687126 
	C59.523495,81.116844 59.309631,81.330635 59.222336,81.897690 
	C59.039959,82.432434 58.847004,82.730003 58.236832,83.138901 
	C57.944042,83.400818 58.068478,83.551414 58.192909,83.702003 
	C58.365414,83.954369 58.568192,84.193069 58.692013,84.467407 
	C58.729267,84.549973 58.546902,84.731651 58.260452,84.991585 
	C57.618858,85.080078 57.181946,85.044914 56.417404,85.004532 
	C56.043510,84.255920 55.997250,83.512520 55.963020,82.397415 
z"/>
<path fill="#31420F" opacity="1.000000" stroke="none" 
	d="
M34.789635,47.606834 
	C33.998901,48.099297 33.185848,48.285645 32.165558,48.712914 
	C31.613598,48.947975 31.268875,48.942116 30.668499,48.925529 
	C30.618778,48.156425 30.824709,47.398052 31.149609,46.357399 
	C31.667503,45.971516 32.066429,45.867912 32.763901,45.673264 
	C33.630737,46.155048 34.199024,46.727882 34.789635,47.606834 
z"/>
<path fill="#AB992B" opacity="1.000000" stroke="none" 
	d="
M49.983376,78.984634 
	C50.315586,79.459473 50.647797,79.934311 50.995857,80.942596 
	C51.011703,81.476051 50.970451,81.936287 50.718712,82.106384 
	C50.307819,82.847412 50.148666,83.418358 49.989513,83.989296 
	C49.185539,83.710159 48.381561,83.431030 47.316330,82.945404 
	C47.290993,81.983894 47.526913,81.228867 47.846764,80.178230 
	C47.930698,79.882614 47.959515,79.447151 48.312416,79.222610 
	C49.104671,78.993584 49.544025,78.989113 49.983376,78.984634 
M49.381203,80.479980 
	C49.381203,80.479980 49.554585,80.577240 49.554585,80.577240 
	C49.554585,80.577240 49.529106,80.386978 49.381203,80.479980 
z"/>
<path fill="#966E23" opacity="1.000000" stroke="none" 
	d="
M50.970451,81.936287 
	C50.970451,81.936287 51.011703,81.476051 51.031265,81.245918 
	C52.660473,81.131683 54.270115,81.247581 55.906311,81.717117 
	C54.896423,82.062553 53.859989,82.054344 52.165340,82.014549 
	C51.328236,81.967407 51.149342,81.951843 50.970451,81.936287 
z"/>
<path fill="#79682B" opacity="1.000000" stroke="none" 
	d="
M50.718712,82.106384 
	C51.149342,81.951843 51.328236,81.967407 51.775726,82.009010 
	C51.574905,82.668106 51.105484,83.301163 50.312790,83.961761 
	C50.148666,83.418358 50.307819,82.847412 50.718712,82.106384 
z"/>
<path fill="#896A27" opacity="1.000000" stroke="none" 
	d="
M58.177967,83.603279 
	C58.068478,83.551414 57.944042,83.400818 58.008274,83.278992 
	C58.196938,83.307762 58.163025,83.504555 58.177967,83.603279 
z"/>
<path fill="#AB992B" opacity="1.000000" stroke="none" 
	d="
M43.971207,76.006027 
	C43.191170,76.331131 42.411137,76.656242 41.313904,77.019569 
	C41.798786,76.125374 42.600861,75.192955 43.706295,74.467514 
	C43.996838,75.118332 43.984024,75.562180 43.971207,76.006027 
z"/>
<path fill="#7A7128" opacity="1.000000" stroke="none" 
	d="
M44.309734,76.008194 
	C43.984024,75.562180 43.996838,75.118332 44.013420,74.342743 
	C44.456059,74.008797 44.894924,74.006599 45.662834,74.010109 
	C45.991875,74.015808 45.999828,74.500725 46.008858,74.742332 
	C46.013981,75.152527 46.010075,75.321121 46.002495,75.742401 
	C45.548641,76.000183 45.098450,76.005280 44.309734,76.008194 
z"/>
<path fill="#765A22" opacity="1.000000" stroke="none" 
	d="
M49.993111,78.735123 
	C49.544025,78.989113 49.104671,78.993584 48.335716,79.005646 
	C48.006107,79.013229 47.997074,78.527855 47.988018,78.287010 
	C48.426350,78.025703 48.873737,78.005241 49.655807,77.985565 
	C49.990494,77.986359 50.002850,78.485611 49.993111,78.735123 
z"/>
<path fill="#765A22" opacity="1.000000" stroke="none" 
	d="
M49.972881,77.249008 
	C50.166550,77.170319 50.359600,77.326981 50.510315,77.517181 
	C50.537613,77.551628 50.391323,77.723625 50.149841,77.911148 
	C49.974518,77.990173 49.957752,77.495850 49.972881,77.249008 
z"/>
<path fill="#3C4827" opacity="1.000000" stroke="none" 
	d="
M55.940346,59.003689 
	C55.940346,59.003689 55.497578,59.031498 55.276543,59.022079 
	C55.222679,58.467133 55.389847,57.921597 55.776199,57.186615 
	C55.995388,56.997162 55.999969,56.999958 56.011765,57.332932 
	C55.995823,58.111832 55.968082,58.557762 55.940346,59.003689 
z"/>
<path fill="#D2C097" opacity="1.000000" stroke="none" 
	d="
M67.798813,56.630928 
	C67.739784,57.126236 67.595100,57.317085 67.450424,57.507935 
	C67.784088,57.653461 68.117744,57.798992 68.736069,58.221077 
	C69.020729,58.497631 68.984406,58.944847 68.984406,58.944847 
	C67.660477,59.975693 66.336540,61.006538 64.452141,62.473770 
	C64.019615,60.602634 63.747120,59.423798 63.474625,58.244961 
	C63.220211,58.224285 62.965794,58.203606 62.711380,58.182930 
	C62.368107,59.584663 62.024834,60.986401 61.681561,62.388134 
	C60.688152,61.897194 59.694740,61.406250 58.764954,60.177452 
	C58.882732,58.624992 58.936886,57.810387 58.991043,56.995781 
	C58.991043,56.995781 58.999023,57.000343 58.998798,56.996979 
	C59.897045,56.547665 60.795517,56.101711 61.873550,55.411263 
	C62.788021,55.103306 63.522934,55.039845 64.625107,54.941765 
	C65.899307,55.380253 66.806229,55.853363 67.798813,56.630928 
z"/>
<path fill="#918B34" opacity="1.000000" stroke="none" 
	d="
M58.614861,56.964928 
	C58.936886,57.810387 58.882732,58.624992 58.719360,59.832771 
	C57.874054,59.943199 57.137966,59.660454 56.171112,59.190697 
	C55.968082,58.557762 55.995823,58.111832 56.010048,57.331055 
	C56.743912,56.975494 57.491295,56.954784 58.614861,56.964928 
z"/>
<path fill="#5B5E2E" opacity="1.000000" stroke="none" 
	d="
M69.008728,59.265480 
	C68.984406,58.944847 69.020729,58.497631 68.989609,58.275810 
	C69.138153,58.050877 69.317818,58.047771 69.766983,58.059792 
	C70.036499,59.230877 70.036499,60.386833 70.036499,61.542793 
	C69.855003,61.571918 69.673500,61.601040 69.492004,61.630165 
	C69.339020,60.948814 69.186035,60.267464 69.008728,59.265480 
z"/>
<path fill="#927F2A" opacity="1.000000" stroke="none" 
	d="
M49.455154,80.433479 
	C49.529106,80.386978 49.554585,80.577240 49.554585,80.577240 
	C49.554585,80.577240 49.381203,80.479980 49.455154,80.433479 
z"/>
</svg>